<svg width="230" height="230" xmlns="http://www.w3.org/2000/svg">

 <g>
  <title>background</title>
  <rect fill="none" id="canvas_background" height="232" width="232" y="-1" x="-1"/>
 </g>
 <g>
  <title>Layer 1</title>
  <g id="svg_1" transform="matrix(0.25393,0,0,0.25393,49.171,-22.484) ">
   <path id="svg_2" fill="#d30334" d="m-64.824,627.97c-12.884,-1.9587 -22.564,-11.127 -26.169,-24.786c-5.8617,-22.208 4.7825,-40.007 27.31,-45.666c19.875,-4.9924 36.692,1.8164 43.954,17.795c8.4358,18.562 3.1568,38.471 -12.453,46.967c-9.2871,5.0547 -22.111,7.2896 -32.642,5.6887l0,0.0013z"/>
   <path id="svg_3" fill="#0038ef" d="m171.71,865.68c0.00007,-0.1375 1.124,-3.85 2.4976,-8.25l2.4975,-8l-2.3061,-2c-1.2684,-1.1 -4.3048,-3.6673 -6.7476,-5.7051l-4.4415,-3.7051l8.507,-0.04494l8.507,-0.04494l2.486,-8.5c1.3673,-4.675 2.7994,-8.5 3.1825,-8.5s1.8579,3.8076 3.2774,8.4614l2.5809,8.4614l8.6448,0.28863l8.6448,0.28864l-6.6402,5c-3.6521,2.75 -6.6514,5.6431 -6.6651,6.429s0.96036,4.4882 2.1646,8.2272s1.8994,7.0882 1.5449,7.4428s-3.503,-1.6299 -6.9966,-4.4098l-6.3519,-5.0544l-6.3733,4.9326c-5.463,4.228 -8.013,5.7183 -8.0124,4.6826l-0.0003,0.00001z"/>
   <path id="svg_4" fill="#0038ef" d="m351.35,863.18c0.37123,-1.5125 1.5048,-5.183 2.519,-8.1566s1.8441,-5.52 1.8441,-5.6587s-3.0375,-2.6557 -6.75,-5.5934l-6.75,-5.3413l8.4944,-0.5l8.4944,-0.5l2.4721,-8.25c1.3596,-4.5375 2.7974,-8.25 3.1951,-8.25s1.8844,3.8076 3.3039,8.4614l2.5809,8.4614l8.7182,0.28863l8.7182,0.28864l-6.7386,4.9429c-3.7062,2.7186 -6.7386,5.5737 -6.7386,6.3448s0.95109,4.5332 2.1135,8.3603s1.8564,7.2155 1.5422,7.5297s-3.4364,-1.6803 -6.9383,-4.4323l-6.3669,-5.0036l-6.4253,4.8538c-3.5339,2.6696 -6.7713,4.8652 -7.1943,4.8791s-0.46532,-1.2122 -0.09409,-2.7247l0.00009,-0.00007z"/>
   <path id="svg_5" fill="#d90134" d="m-0.79083,780.53c-0.54719,-0.7707 -2.7051,-3.4322 -4.7953,-5.9145l-3.8004,-4.5133l13.888,-25.835c7.6386,-14.21 16.099,-29.994 18.8,-35.076s5.137,-9.2429 5.412,-9.2463c0.82459,-0.01009 10,11.669 10,12.729c0,0.53917 -1.7972,4.2499 -3.9938,8.2461l-3.9938,7.2658l9.1395,10.873c5.0268,5.98 9.4115,10.878 9.7438,10.884s4.1526,-1.2176 8.4894,-2.7201l7.8852,-2.7318l5.3055,5.9701c2.918,3.2836 4.9947,6.2354 4.6148,6.5595c-1.0959,0.9352 -72.524,24.922 -74.196,24.916c-0.82782,-0.00284 -1.9528,-0.63574 -2.5,-1.4064l0.0011,-0.0001z"/>
   <path id="svg_6" fill="#fff" d="m23.714,759.78c6.325,-2.2915 11.675,-4.3079 11.889,-4.4809c0.41788,-0.3375 -2.7033,-4.4597 -8.1825,-10.807l-3.3994,-3.9378l-4.3011,7.4378c-2.3656,4.0908 -5.4026,9.3503 -6.7488,11.688s-2.0675,4.2537 -1.6027,4.2581s6.02,-1.8667 12.345,-4.1582l0.0005,0z"/>
   <path id="svg_7" fill="#0038ef" d="m260.71,767.92c-4.125,-0.48496 -13.907,-1.565 -21.738,-2.4002c-12.57,-1.3406 -16.903,-2.3589 -37,-8.6962c-12.519,-3.9478 -23.662,-7.7247 -24.762,-8.3931s-10.1,-5.6365 -20,-11.04c-16.006,-8.7362 -19.994,-11.474 -36,-24.713c-16.602,-13.731 -19.188,-16.339 -33.296,-33.564c-11.855,-14.475 -16.672,-21.263 -21.416,-30.176c-3.3659,-6.325 -6.8666,-12.85 -7.7792,-14.5c-3.8772,-7.0095 -8.0071,-15.182 -8.8889,-17.589c-0.80103,-2.1868 -2.476,-3.0738 -10.784,-5.7108c-5.4098,-1.717 -11.919,-4.4449 -14.465,-6.062c-21.273,-13.513 -20.989,-49.883 0.57698,-73.87l4.5373,-5.0466l-1.9568,-4.4236c-5.2498,-11.868 -6.4676,-25.998 -3.1574,-36.634c2.0517,-6.5921 8.695,-19.165 10.126,-19.165c2.5399,0 6.4667,-7.9975 10.638,-21.666c3.0175,-9.8876 6.4591,-18.502 10.321,-25.834c13.292,-25.237 15.454,-29.164 17.891,-32.5c6.3902,-8.7502 28.845,-35.784 31.832,-38.323c1.8264,-1.5526 3.3208,-3.196 3.3208,-3.6521s-6.75,-5.237 -15,-10.624c-10.165,-6.6376 -15,-10.376 -15,-11.598c0,-1.6969 1.7543,-1.8029 29.844,-1.8029l29.844,0l12.906,-7.0908c7.0983,-3.8999 16.506,-9.041 20.906,-11.425c11.681,-6.3279 49.957,-18.269 62.5,-19.498c5.225,-0.51211 14.45,-1.4931 20.5,-2.18c13.889,-1.5769 23.111,-1.5769 37,0c6.05,0.68691 15.303,1.6679 20.563,2.1799c7.3193,0.71259 14.826,2.5962 32,8.0291c12.341,3.904 23.562,7.6653 24.937,8.3585c6.537,3.2957 36.805,20.118 39.127,21.746c1.4449,1.013 10.176,8.1303 19.402,15.816c15.188,12.652 18.207,15.734 31.91,32.57c11.708,14.385 16.542,21.244 21.349,30.295c3.4178,6.4346 8.2851,15.524 10.816,20.199c2.8131,5.1956 6.6074,14.914 9.7603,25l5.1581,16.5l3.9887,1.0248c15.688,4.0307 23.314,9.7664 29.721,22.352c4.2279,8.3056 4.264,8.4668 4.2569,19c-0.00587,8.6625 -0.39419,11.463 -2.1038,15.174c-2.9756,6.4587 -7.2463,10.938 -14.106,14.794l-5.9499,3.3448l-1.3064,6.5723c-0.7185,3.6148 -3.2647,10.435 -5.6583,15.155s-4.3548,9.8395 -4.3582,11.375s-3.2142,13.236 -7.1348,26c-6.3066,20.532 -8.0536,24.937 -15.153,38.208c-4.4133,8.25 -9.418,17.612 -11.122,20.805c-3.142,5.8892 -29.158,38.865 -34.706,43.991l-3.0271,2.7967l10.068,10.833c5.5374,5.9584 10.068,11.311 10.068,11.894c0,2.6864 -2.6328,1.5628 -14.858,-6.3415c-7.2132,-4.6638 -13.526,-8.4796 -14.028,-8.4796s-5.7958,4.0693 -11.764,9.0429c-13.188,10.991 -45.082,29.212 -60.317,34.458c-19.299,6.6461 -37.065,11.453 -46.178,12.494c-22.298,2.5477 -26.867,2.9827 -35.855,3.4133c-5.225,0.25028 -12.875,0.05828 -17,-0.42668l0.00072,0.00378z"/>
   <path id="svg_8" fill="#bfffff" d="m301.21,758.46c21.629,-2.3782 22.362,-2.5359 43.5,-9.3568c20.089,-6.4826 22.78,-7.6509 41.01,-17.805c14.382,-8.0108 22.072,-13.022 29.256,-19.065l9.7457,-8.1978l-4.5988,-3.1641c-4.5253,-3.1135 -4.6923,-3.1457 -10.441,-2.0147c-13.958,2.746 -22.75,3.1637 -32.781,1.5574c-11.026,-1.7657 -25.339,-6.7908 -35.883,-12.598l-7.1922,-3.9612l-9.8078,4.8956c-13.778,6.8776 -26.61,10.83 -41.238,12.703c-11.418,1.4616 -13.274,1.4588 -22.793,-0.03382c-11.053,-1.7331 -25.958,-6.7755 -38.056,-12.874l-7.2798,-3.6695l-4.2202,2.8627c-9.408,6.3817 -28.177,12.467 -44.196,14.329c-9.1085,1.0588 -11.021,0.96881 -20.664,-0.97193c-5.8445,-1.1763 -17.078,-4.3701 -24.964,-7.0974s-14.486,-4.8102 -14.668,-4.6287s8.1446,7.3788 18.502,15.994c17.241,14.34 20.482,16.572 38.346,26.409c18.149,9.9933 21.015,11.225 40.969,17.598c20.482,6.542 22.361,6.954 41.455,9.0924c25.809,2.8904 29.688,2.8902 56,-0.00292l-0.0009,-0.00023z"/>
   <path id="svg_9" fill="#fff" d="m421.03,685.18l-41.646,-44.662c-10.482,-11.235 -14.453,-16.126 -13.51,-16.639c0.73465,-0.39968 3.9359,-1.3011 7.1139,-2.0032s5.653,-1.5966 5.5,-1.9878s-21.112,-23.05 -46.576,-50.353s-46.022,-50.087 -45.686,-50.632c0.3451,-0.55838 4.9763,-0.9456 10.621,-0.88804c5.5049,0.05615 10.217,-0.10626 10.472,-0.36089s-19.803,-23.077 -44.573,-50.716s-45.037,-50.535 -45.038,-50.88s3.4866,-0.62715 7.75,-0.62715c4.2841,0 7.8972,-0.44732 8.077,-1s-16.696,-21.111 -37.5,-45.69l-37.825,-44.69l-35.75,-0.05958c-19.662,-0.03278 -35.75,0.12871 -35.75,0.35885s1.6875,1.4479 3.75,2.7061c3.9639,2.4181 55.406,35.805 102.17,66.309l16.418,10.71l-5.9183,3.2451c-28.492,15.623 -34.418,19.015 -34.418,19.699c0,0.43209 25.858,18.027 57.462,39.099s57.479,38.552 57.5,38.844s-2.099,1.6453 -4.7115,3.008c-22.311,11.638 -36.273,19.19 -36.674,19.838c-0.26298,0.42552 6.3623,5.5088 14.723,11.296s32.976,22.798 54.701,37.802s40.047,27.785 40.715,28.403c0.92023,0.85076 -3.7654,3.6353 -19.312,11.477c-11.29,5.6944 -20.387,10.457 -20.215,10.583s9.9874,6.4575 21.812,14.069c31.12,20.031 73.094,47.116 97.399,62.849c8.1945,5.3042 15.084,9.6441 15.311,9.6441s-11.649,-12.938 -26.39,-28.75l-0.0021,-0.00149z"/>
   <path id="svg_10" fill="#fff" d="m170.21,698.47c15.193,-2.4045 30.641,-7.7889 39.158,-13.648c2.3116,-1.5904 4.6559,-2.8916 5.2096,-2.8916s5.4401,2.168 10.859,4.8178c11.528,5.6376 26.66,10.553 37.354,12.135c15.691,2.3203 39.335,-2.8222 60.767,-13.216l10.347,-5.0181l7.657,4.0798c11.616,6.1892 24.764,10.844 35.228,12.47c9.711,1.5098 11.663,1.4809 25.672,-0.37961c7.7819,-1.0335 9.9427,-2.025 6.9314,-3.1805c-0.72527,-0.27831 -15.013,-9.3871 -31.75,-20.242s-31.71,-20.282 -33.272,-20.949c-2.5269,-1.079 -3.7978,-0.80464 -11.5,2.4825c-19.1,8.1514 -41.983,11.244 -67.159,9.0774c-26.451,-2.2768 -43.018,-8.2954 -58.617,-21.295c-4.1458,-3.4551 -8.8511,-7.3506 -10.456,-8.6569l-2.9185,-2.3749l-5.1301,2.2069c-24.058,10.35 -65.059,-1.4445 -87.418,-25.146l-6.4128,-6.7979l-6.1898,4.0006c-6.14,3.9684 -17.254,7.9865 -22.091,7.9865c-5.4102,0 -8.8396,1.1964 -8.3003,2.8958c0.28547,0.89944 5.1014,10.178 10.702,20.62c8.5616,15.962 11.933,21.115 21.177,32.365c12.367,15.051 11.941,14.771 33.73,22.186c13.298,4.5254 27.087,7.7621 33.424,7.8452c2.2,0.02884 8.05,-0.58853 13,-1.3719l-0.0015,-0.00109z"/>
   <path id="svg_11" d="m438.79,692.27c1.967,-2.1584 2.0767,-2.5348 0.58141,-1.9957c-1.0136,0.36541 -2.9382,0.93929 -4.2769,1.2753c-1.9384,0.48649 -2.1999,0.89288 -1.2846,1.9957c1.5958,1.9228 2.2085,1.766 4.9801,-1.2753l-0.00001,0z"/>
   <path id="svg_12" fill="#fff" d="m438.55,687.36c6.888,-2.5531 7.0456,-2.6958 18.227,-16.499c11.768,-14.528 12.209,-15.192 20.87,-31.426c2.9343,-5.5 7.0315,-13.15 9.1049,-17c2.2264,-4.1341 6.321,-15.393 10.001,-27.5c3.4273,-11.275 6.442,-21.056 6.6994,-21.737s-1.4904,-0.14539 -3.8839,1.1882c-8.5219,4.7481 -21.17,7.6455 -36.102,8.27c-7.5625,0.31629 -13.75,0.63815 -13.75,0.71524s0.9,1.9055 2,4.063c3.0465,5.9756 2.703,14.565 -0.94063,23.519c-4.6007,11.305 -8.3039,14.328 -21.982,17.945c-10.094,2.6691 -22.497,2.5655 -27.99,-0.23385c-1.8768,-0.95636 -3.5092,-1.6244 -3.6276,-1.4845s-0.93538,2.7644 -1.8156,5.8322s-2.6678,7.151 -3.9726,9.0736l-2.3723,3.4957l20.575,22.176c11.316,12.197 20.898,22.176 21.293,22.176s3.8449,-1.1589 7.6663,-2.5754l0.00003,0.00181z"/>
   <path id="svg_13" fill="#bfffff" d="m494.96,460.97c2.0625,-0.01893 3.75,-0.52237 3.75,-1.1188c0,-2.3629 -8.9435,-29.715 -10.777,-32.958c-1.0747,-1.9015 -4.0746,-7.4158 -6.6664,-12.254l-4.7124,-8.7967l-14.172,7.4326c-11.474,6.0178 -34.22,18.926 -35.459,20.124c-0.38191,0.36907 14.716,20.537 15.374,20.537c0.2818,0 1.8287,-0.68072 3.4376,-1.5127c4.9163,-2.5423 14.035,-3.0252 18.038,-0.95518c7.5086,3.8828 9.983,6.6332 12.268,13.637c0.48707,1.4927 1.3176,1.3642 7.8571,-1.2156c4.0218,-1.5866 8.9999,-2.9002 11.062,-2.9191l0.0001,-0.00052z"/>
   <path id="svg_14" fill="#bfffff" d="m57.629,448.98c15.22,-7.7649 36.987,-10.954 53.721,-7.8702c6.0995,1.1239 6.471,1.075 8.854,-1.1637c2.405,-2.2594 2.4246,-2.3809 0.58947,-3.6662c-7.3598,-5.155 -50.769,-28.082 -51.494,-27.198c-0.15976,0.19497 -2.8507,5.1621 -5.9799,11.038c-4.5926,8.6241 -11.505,26.56 -11.588,30.066c-0.02925,1.2421 1.8518,0.85726 5.8974,-1.2067l0.00003,0.0008z"/>
   <path id="svg_15" fill="#bfffff" d="m132.37,432.43c1.9745,-0.825 5.3058,-1.5 7.4028,-1.5c6.621,0 8.6134,-1.3173 9.3438,-6.178c0.78485,-5.2228 6.4407,-18.511 10.298,-24.195c1.5404,-2.2698 5.3792,-6.6054 8.5308,-9.6346l5.7301,-5.5077l-27.665,-17.992c-15.216,-9.8958 -28.259,-18.138 -28.984,-18.317c-2.3798,-0.58481 -8.8628,6.0534 -23.675,24.242c-12.751,15.658 -22.1,29.646 -20.615,30.845c0.26332,0.21263 7.6788,4.0106 16.479,8.4398s20.95,11.013 27,14.631s11.352,6.598 11.782,6.6223s2.3976,-0.63079 4.3721,-1.4558l0.0004,0z"/>
   <path id="svg_16" fill="#bfffff" d="m435.03,422.29c6.1533,-3.6561 17.263,-9.8053 24.688,-13.665s13.643,-7.1236 13.817,-7.2532c1.27,-0.94304 -6.9714,-12.937 -19.273,-28.049c-13.225,-16.246 -16.185,-19.241 -32.302,-32.68c-12.821,-10.691 -20.506,-16.282 -27.707,-20.158l-9.9646,-5.3639l-17.745,33.141c-13.279,24.8 -17.41,33.329 -16.414,33.886c0.73194,0.40961 5.0846,2.1288 9.6726,3.8205c10.914,4.0243 25.635,11.387 34.553,17.283c3.9258,2.5953 12.026,9.4154 18,15.156s11.003,10.458 11.174,10.484s5.3467,-2.9449 11.5,-6.601l0.001,-0.0004z"/>
   <path id="svg_17" fill="#bfffff" d="m282.74,383.49c3.7243,-1.3434 10.466,-3.1434 14.981,-4c10.077,-1.9116 30.183,-1.9819 38.79,-0.13557c6.0866,1.3056 6.3457,1.2788 7.6081,-0.78513c1.1144,-1.8221 31.323,-58.194 34.415,-64.222c0.97963,-1.9097 0.42076,-2.4292 -6.6273,-6.1615c-4.3773,-2.3179 -16.755,-6.946 -28.697,-10.73c-20.567,-6.517 -21.464,-6.7042 -43.5,-9.0692c-12.375,-1.3282 -23.288,-2.4236 -24.25,-2.4342c-1.6436,-0.0181 -1.75,3.021 -1.75,49.981c0,36.476 0.30538,50 1.129,50c0.62096,0 4.1762,-1.0992 7.9004,-2.4426l0.0008,-0.0008z"/>
   <path id="svg_18" fill="#bfffff" d="m267.71,333.62l0,-47.312l-20.75,2.156c-20.104,2.0889 -21.419,2.3659 -42.25,8.8988c-18.5,5.802 -23.453,7.8121 -35.5,14.406c-9.5895,5.249 -13.334,7.7582 -11.887,7.9648c1.3487,0.19251 10.209,9.8774 24.5,26.781l22.387,26.479l4.5,-0.78097c2.475,-0.42953 11.25,-0.72531 19.5,-0.65728c14.132,0.11651 15.55,0.31147 24.499,3.3678c5.2245,1.7843 10.387,3.8661 11.473,4.6263s2.3232,1.3822 2.7508,1.3822s0.77749,-21.29 0.77749,-47.312l-0.00029,0.00035z"/>
   <path id="svg_19" fill="#fff" d="m-44.317,610.44c6.3055,-2.2247 10.45,-5.7434 12.897,-10.949c2.6304,-5.5959 2.7032,-10.085 0.25491,-15.73c-2.2246,-5.1287 -5.2829,-8.1671 -10.352,-10.285c-8.9321,-3.7321 -26.2,-0.2109 -32.402,6.6073c-5.3981,5.9345 -6.5558,12 -3.822,20.023c1.8325,5.3781 5.7731,9.4363 11.092,11.423c4.6702,1.7446 15.843,1.1992 22.331,-1.09l0.00109,0.0007z"/>
   <path id="svg_20" fill="#d90034" d="m521.25,352.18c-4.0069,-4.8175 -5.4596,-7.3226 -5.0742,-8.75c0.29702,-1.1 2.2754,-8.2607 4.3965,-15.913c2.9963,-10.81 3.6799,-14.696 3.0648,-17.423c-0.81558,-3.6162 -3.7455,-8.2717 -5.5934,-8.8877c-0.57602,-0.19201 -6.1736,3.9293 -12.439,9.1585l-11.392,9.5076l-3.2802,-3.7216c-5.0805,-5.764 -6.6077,-8.2438 -5.6184,-9.1229c8.3829,-7.4495 55.362,-46.09 56.008,-46.067c1.187,0.04268 24.25,28.002 27.248,33.032c4.7394,7.9531 4.6202,14.753 -0.38526,21.976c-6.1172,8.8272 -16.931,11.6 -26.293,6.7429l-4.9266,-2.556l-0.50162,6.6366c-0.42569,5.6321 -8.0364,32.137 -9.228,32.137c-0.20428,0 -2.8978,-3.0375 -5.9856,-6.75l-0.00002,0.0006z"/>
   <path id="svg_21" fill="#d90034" d="m224.11,229.18c4.6251,-15.127 22.881,-73.805 23.01,-73.959c0.09632,-0.11512 3.7639,-0.5086 8.1501,-0.87439l7.9749,-0.66509l7.9101,16.374l17.268,35.755c5.1468,10.66 9.1517,19.587 8.8997,19.839s-3.9805,0.69589 -8.2856,0.98642l-7.8274,0.52823l-3.6432,-8.0683l-3.6432,-8.0683l-7.3568,0.48686c-4.0463,0.26777 -10.611,0.73327 -14.589,1.0345l-7.2326,0.5476l-2.072,7.1663c-1.1396,3.9415 -2.2338,7.6648 -2.4315,8.2741c-0.45345,1.3973 -5.3293,2.3922 -11.724,2.3922c-4.2442,0 -4.8668,-0.24721 -4.4073,-1.75l-0.0002,0.00087z"/>
   <path id="svg_22" fill="#d90133" d="m257.71,888.63c0,-0.16693 1.5026,-4.7794 3.339,-10.25c5.5538,-16.544 6.1584,-14.141 -5.7931,-23.03c-5.7451,-4.2732 -10.217,-8.14 -9.9367,-8.5929s6.2638,-0.82339 13.297,-0.82339l12.789,0l3.9446,-12.25c2.1695,-6.7375 4.3196,-12.25 4.778,-12.25s2.5924,5.5125 4.7422,12.25l3.9088,12.25l12.907,0c7.0986,0 13.138,0.37399 13.42,0.83108s-3.9984,4.1049 -9.5132,8.1063s-10.215,7.7899 -10.446,8.4189s1.329,6.6562 3.4658,13.394s3.4841,12.25 2.9941,12.25s-5.0546,-3.0703 -10.144,-6.8229s-9.7989,-7.1441 -10.466,-7.5366c-0.72049,-0.42366 -5.34,2.3491 -11.367,6.8229c-8.8368,6.5591 -11.919,8.4295 -11.919,7.2331l-0.0005,-0.00049z"/>
   <path id="svg_23" fill="#d90133" d="m458.93,852.68c-1.583,-2.3378 -3.1716,-4.7568 -3.5302,-5.3756c-0.3981,-0.68695 5.765,-5.2975 15.83,-11.842c9.0649,-5.8944 16.482,-10.925 16.482,-11.18c0,-0.7531 -8.0309,-12.353 -8.5523,-12.353c-0.26276,0 -6.7481,4.0554 -14.412,9.0119s-14.57,9.2557 -15.346,9.5538c-1.72,0.66003 -8.4262,-9.2726 -7.0812,-10.488c0.49042,-0.44316 7.3283,-4.9796 15.195,-10.081c8.3675,-5.426 14.11,-9.7787 13.838,-10.488c-0.25606,-0.66727 -2.5208,-4.4196 -5.0327,-8.3385l-4.5672,-7.1253l-16.156,10.561c-8.8859,5.8086 -16.727,10.78 -17.425,11.048c-1.2257,0.47035 -7.4608,-7.4717 -7.4608,-9.5034c0,-0.54428 10.451,-7.7713 23.224,-16.06c18.323,-11.89 23.477,-14.809 24.421,-13.83c1.397,1.447 35.622,53.85 37.973,58.142c1.3189,2.4075 1.359,3.0443 0.23551,3.7376c-0.74483,0.45961 -9.9042,6.4729 -20.354,13.363c-26.479,17.459 -23.819,16.362 -27.281,11.248l-0.00011,-0.0005z"/>
   <path id="svg_24" fill="#d90133" d="m83.831,851.17l-5.383,-3.7412l0.67258,-13.5c0.36993,-7.425 1.0595,-20.025 1.5324,-28c0.47291,-7.975 0.77256,-14.595 0.66587,-14.711s-5.1239,6.8319 -11.149,15.44s-12.208,17.382 -13.738,19.498l-2.783,3.8466l-5.4551,-3.7869c-3.0003,-2.0828 -5.4605,-4.1834 -5.467,-4.6679c-0.0083,-0.61722 37.813,-55.608 41.598,-60.481c0.1547,-0.1992 3.0921,1.6008 6.5275,4l6.2462,4.3622l-0.27532,10.981c-0.15143,6.0394 -0.43127,11.233 -0.62187,11.541c-0.56969,0.92178 -1.7893,32.52 -1.2342,31.978c0.28128,-0.275 6.0114,-8.375 12.734,-18s12.605,-17.907 13.072,-18.404c1.0077,-1.0717 12.143,6.3022 11.668,7.7267c-0.79078,2.3723 -41.335,59.653 -42.226,59.656c-0.55,0.00187 -3.4224,-1.6802 -6.383,-3.7378l-0.00106,0.0003z"/>
   <path id="svg_25" fill="#d90133" d="m520.21,795.22c-2.2,-0.88544 -4.1472,-1.7219 -4.327,-1.8588s1.3922,-3.2381 3.4935,-6.8916c3.2411,-5.6352 4.1248,-6.5313 5.827,-5.9088c4.426,1.6186 11.919,0.93457 15.171,-1.3848c6.8741,-4.9032 8.873,-14.094 4.8906,-22.486c-3.7466,-7.8955 -18.775,-19.768 -25.001,-19.751c-4.4371,0.01205 -9.7486,2.256 -12.974,5.481c-5.2575,5.2575 -5.539,10.352 -1.1422,20.674c0.55142,1.2945 -0.70739,2.4516 -5.7114,5.25c-3.5303,1.9742 -6.6607,3.5896 -6.9565,3.5896c-1.0549,0 -4.6125,-10.587 -5.196,-15.462c-1.5236,-12.73 10.301,-28.927 23.867,-32.69c2.2325,-0.61928 6.8051,-1.0982 10.161,-1.0642c16.523,0.16735 36.077,17.707 39.426,35.364c2.5951,13.684 -5.628,28.998 -19.217,35.788c-7.1202,3.558 -15.557,4.0688 -22.311,1.3506z"/>
   <path id="svg_26" fill="#d90133" d="m-40.622,727.68c-4.2248,-7.2875 -10.776,-18.65 -14.557,-25.25l-6.8757,-12l5.1346,-3.2274c2.824,-1.7751 5.3831,-3.2376 5.6868,-3.25s3.0037,4.193 6,9.3454l5.4479,9.368l20,-11.65c11,-6.4073 22.957,-13.3 26.572,-15.317l6.5719,-3.6676l3.842,6.5678c3.122,5.337 3.577,6.731 2.4281,7.4385c-0.77765,0.47887 -12.664,7.398 -26.414,15.376s-24.903,14.912 -24.784,15.41c0.20565,0.86018 4.1971,7.869 8.4393,14.819l1.9606,3.212l-4.8081,3.019c-2.6444,1.6604 -5.2929,3.0275 -5.8855,3.038s-4.5341,-5.9435 -8.7589,-13.231l0,-0.0007z"/>
   <path id="svg_27" fill="#d90133" d="m565.71,724.3l-30.841,-20.028l-8.3412,-5.4131l1.7603,-2.7136c5.8487,-9.0163 6.7582,-10.126 7.7941,-9.5106c0.62038,0.36865 6.978,4.4707 14.128,9.1157c27.051,17.573 34.193,22.204 40.717,26.397l6.7172,4.3171l-4.0965,6.2336c-2.2531,3.4285 -4.3758,6.2298 -4.7172,6.2252s-10.746,-6.5851 -23.121,-14.623l0.0003,-0.0003z"/>
   <path id="svg_28" fill="#d90133" d="m577.58,684.18l-27.621,-27.75l3.4507,-7.3561l3.4507,-7.3561l5.1769,0.6348c2.8473,0.34914 9.9019,1.062 15.677,1.5841s15.225,1.3888 21,1.926c5.775,0.53716 16.125,1.4732 23,2.08s12.836,1.1898 13.247,1.2953s-0.85768,3.5865 -2.819,7.7354l-3.5661,7.5434l-7.681,-0.75912c-4.2245,-0.41752 -11.956,-1.2263 -17.181,-1.7974c-22.907,-2.5034 -30.193,-3.1703 -30.566,-2.7977c-0.21895,0.21895 8.5938,8.852 19.584,19.185s19.982,19.182 19.982,19.666c0,1.2793 -6.3305,13.917 -6.9713,13.917c-0.29813,0 -12.971,-12.488 -28.163,-27.75l0.0001,-0.00058z"/>
   <path id="svg_29" fill="#d90133" d="m-72.667,664.7c-1.4409,-3.9027 -2.4699,-7.2458 -2.2868,-7.4289c0.47493,-0.47493 67.792,-26.335 68.553,-26.335c0.98734,0 5.9854,13.424 5.2613,14.131c-0.52926,0.51682 -15.572,6.3549 -66.777,25.915c-1.9329,0.73837 -2.3745,0.15443 -4.7508,-6.2819l0.0003,-0.0002z"/>
   <path id="svg_30" fill="#d90133" d="m616.21,620.98c-7.6045,-3.6735 -10.615,-7.6475 -11.97,-15.801c-0.38838,-2.3375 -1.0324,-4.25 -1.4312,-4.25s-1.9491,1.2777 -3.4452,2.8393s-4.6178,3.775 -6.9371,4.9187c-5.2049,2.5667 -23.687,10.242 -24.663,10.242c-0.39228,0 -0.05706,-3.9997 0.74495,-8.8883l1.4582,-8.8883l8.6213,-3.7398c15.46,-6.7063 23.065,-10.748 24.584,-13.066c2.2716,-3.4669 3.0741,-9.9974 1.3117,-10.674c-0.78906,-0.30279 -7.575,-1.572 -15.08,-2.8205c-12.747,-2.1207 -13.616,-2.4066 -13.209,-4.3465c0.23987,-1.1421 0.92375,-4.6062 1.5197,-7.698l1.0836,-5.6215l7.2058,1.2894c3.9632,0.70916 15.081,2.6778 24.706,4.3748s22.818,4.0373 29.318,5.2006l11.818,2.1152l-0.64429,4.1315c-1.8272,11.717 -5.6847,31.737 -6.9741,36.194c-3.0452,10.528 -8.5477,15.353 -18.273,16.024c-4.2537,0.29353 -6.7824,-0.10502 -9.7444,-1.5359l0.00004,0.0003z"/>
   <path id="svg_31" fill="#fff" d="m629.6,604.18c2.0892,-2.1066 3.0374,-4.5046 4.053,-10.25c0.72914,-4.125 1.6588,-9.1402 2.0659,-11.145l0.74016,-3.6448l-8.5686,-1.5733c-4.7127,-0.86534 -8.7948,-1.3471 -9.0713,-1.0706s-1.2943,5.2695 -2.2617,11.096c-1.5438,9.2968 -1.5857,11.007 -0.34318,13.981c2.398,5.7391 9.0035,7.0255 13.386,2.6068l-0.00028,-0.0001z"/>
   <path id="svg_32" fill="#d90133" d="m580.31,536.29c-0.34056,-2.6694 -1.0519,-11.603 -1.5808,-19.853s-1.2604,-18.874 -1.6256,-23.609l-0.66391,-8.609l7.8867,-0.66212c4.3377,-0.36416 14.187,-1.0872 21.887,-1.6066s20.713,-1.4099 28.917,-1.9788s15.049,-0.90204 15.211,-0.74043c0.71537,0.71537 4.7442,53.668 4.13,54.282c-0.23068,0.23068 -3.1556,0.7054 -6.4998,1.0549l-6.0804,0.63553l-0.54882,-5.3832c-0.30184,-2.9608 -0.80383,-9.6582 -1.1155,-14.883s-0.84002,-11.656 -1.1741,-14.291l-0.60736,-4.7911l-7.1157,0.2911l-7.1157,0.2911l0.0054,7c0.00296,3.85 0.22796,12.175 0.5,18.5l0.4946,11.5l-6.1283,0.29456l-6.1283,0.29456l-0.74681,-7.7946c-0.41074,-4.287 -1.028,-12.295 -1.3717,-17.795l-0.62486,-10l-8.5,-0.25516c-4.675,-0.14033 -9.1135,0.14275 -9.8634,0.62908c-1.1345,0.73583 -1.1728,3.2961 -0.22813,15.255c0.62438,7.904 1.3077,16.958 1.5185,20.121l0.3833,5.75l-3.2802,0c-1.8041,0 -4.6378,0.27152 -6.2971,0.60339c-2.9663,0.59326 -3.0273,0.52191 -3.6361,-4.25l-0.00091,-0.00021z"/>
   <path id="svg_33" fill="#d90133" d="m-31.786,538.29c-2.2,-0.16838 -10.525,-0.7554 -18.5,-1.3045c-37.435,-2.5774 -47.551,-3.4084 -48.194,-3.9588c-0.38192,-0.32687 -0.38192,-3.6774 0,-7.4456c0.81126,-8.0045 -2.4151,-5.5746 28.694,-21.611c11,-5.6704 20.345,-10.616 20.768,-10.991s-7.4528,-1.2335 -17.5,-1.9084s-20.63,-1.4644 -23.518,-1.7544l-5.25,-0.52725l0,-14.15l11.75,0.65936c23.713,1.3307 62.412,4.3381 62.703,4.8729c0.07831,0.14369 -0.10412,3.582 -0.40541,7.6408l-0.54781,7.3795l-23.242,12.196c-12.783,6.7078 -23.517,12.471 -23.852,12.806c-0.92153,0.92154 4.2322,1.5 25.299,2.8394c11.96,0.7604 19.333,1.6319 19.545,2.3103c0.18693,0.59911 0.16736,3.9018 -0.0435,7.3393c-0.31235,5.0921 -0.69112,6.2189 -2.0446,6.0819c-0.91365,-0.09246 -3.4612,-0.30587 -5.6612,-0.47426l-0.00048,-0.00025z"/>
   <path id="svg_34" fill="#d90133" d="m-50.469,445.61c-20.563,-17.44 -29.685,-25.79 -29.691,-27.175c-0.00405,-1.1 0.97966,-4.7 2.186,-8l2.1934,-6l20.497,-1.1593c42.641,-2.4117 58.51,-3.1512 58.921,-2.7454c0.2331,0.23043 -0.61835,3.742 -1.8921,7.8035l-2.3159,7.3846l-9.2721,0.69516l-9.2721,0.69516l-4.6542,13.647l-4.6542,13.647l3.7981,3.0157c2.089,1.6586 5.1403,4.2012 6.7808,5.65l2.9827,2.6343l-2.3884,7.6157c-1.3136,4.1886 -2.6467,7.5821 -2.9623,7.5411s-13.931,-11.404 -30.257,-25.25l0.0003,0.00048z"/>
   <path id="svg_35" fill="#fff" d="m-36.082,426.22c1.5299,-4.1963 2.6214,-7.7898 2.4257,-7.9856s-6.3172,-0.22996 -13.603,-0.07598l-13.247,0.27998l10.247,8.2798c5.636,4.5539 10.506,8.0214 10.821,7.7056s1.8258,-4.0075 3.3557,-8.2038l0.0006,0z"/>
   <path id="svg_36" fill="#d90133" d="m585.21,466.3c-9.6772,-2.4154 -16.511,-10.628 -20.005,-24.043c-2.8206,-10.829 -1.3989,-19.736 4.1927,-26.269c3.506,-4.096 11.925,-9.7717 12.96,-8.7369c0.30666,0.30667 1.5937,3.3988 2.8602,6.8715l2.3026,6.3139l-4.5038,4c-3.8601,3.4282 -4.58,4.6806 -5.0367,8.7617c-1.0241,9.1515 4.3721,17.756 11.115,17.723c6.4228,-0.03157 7.6123,-2.7877 7.626,-17.669c0.01675,-18.278 3.3642,-26.08 12.961,-30.208c7.7398,-3.3296 14.465,-2.2922 20.728,3.1973c5.8769,5.1514 9.568,14.413 10.041,25.195c0.34742,7.9132 0.11518,9.5434 -1.9232,13.5c-2.0692,4.0163 -10.242,11 -12.874,11c-0.45612,0 -1.8465,-3.1583 -3.0897,-7.0184l-2.2604,-7.0184l3.1597,-2.8859c3.9619,-3.6186 4.8879,-7.1975 3.3683,-13.018c-1.7646,-6.7594 -4.1665,-9.559 -8.2009,-9.559c-4.8474,0 -5.889,2.7533 -5.9069,15.614c-0.02599,18.712 -2.7603,26.318 -11.242,31.271c-4.2124,2.4596 -12.37,3.9532 -16.272,2.9793l0.0001,-0.0011z"/>
   <path id="svg_37" fill="#d90133" d="m-10.786,380.91c-9.9,-6.5228 -23.509,-15.374 -30.241,-19.669s-12.245,-8.1714 -12.25,-8.6141s1.7974,-3.4648 4.0051,-6.7157l4.014,-5.9109l16.736,10.803c9.2048,5.9418 20.685,13.361 25.511,16.488l8.7748,5.6844l10.088,-15.512l10.088,-15.512l2.9023,1.7144c1.5963,0.94294 4.0309,2.6258 5.4102,3.7398l2.5079,2.0253l-14.028,21.5c-7.7154,11.825 -14.363,21.576 -14.773,21.669s-8.8452,-5.168 -18.745,-11.691l-0.0003,0.0008z"/>
   <path id="svg_38" fill="#fff" d="m551.73,309.42c6.7371,-3.4839 6.0232,-9.0473 -2.4975,-19.462c-8.377,-10.239 -7.48,-10.007 -14.917,-3.8683c-3.559,2.9374 -6.5012,5.6249 -6.5381,5.9722c-0.13497,1.2681 13.6,16.394 15.981,17.598c3.1988,1.6188 4.4503,1.5811 7.972,-0.24003l-0.0004,0.00013z"/>
   <path id="svg_39" fill="#d90133" d="m452.71,284.04c-12.375,-8.7116 -22.453,-16.48 -22.396,-17.263c0.11544,-1.5786 40.52,-59.771 41.53,-59.814c0.73815,-0.03133 41.712,28.492 43.704,30.423c1.1128,1.0792 0.72217,2.1563 -2.3151,6.384l-3.6537,5.0857l-8.9092,-6.21c-4.9,-3.4155 -12.25,-8.5448 -16.333,-11.399l-7.424,-5.1885l-4.1017,5.8474c-2.256,3.2161 -4.1017,6.2802 -4.1017,6.8091s6.2822,5.3091 13.961,10.623s14.237,10.108 14.575,10.655c0.74439,1.2044 -5.6228,10.324 -7.0355,10.077c-0.55,-0.09619 -7.4603,-4.7081 -15.356,-10.249s-14.68,-9.694 -15.077,-9.23c-3.2875,3.8496 -10.071,14.528 -9.6555,15.201c0.28687,0.46418 7.7367,5.9042 16.555,12.089l16.034,11.245l-1.7249,2.92c-0.94868,1.606 -2.6363,4.0254 -3.7502,5.3765l-2.0253,2.4565l-22.5,-15.839l-0.0002,0.0003z"/>
   <path id="svg_40" fill="#d90133" d="m62.619,267.79l-27.76,-26.355c-1.1247,-1.0684 -0.32542,-1.9871 4.6951,-5.3965c3.3278,-2.2599 6.4192,-4.1089 6.8699,-4.1089s6.6628,5.8813 13.805,13.069s15.107,14.867 17.701,17.064l4.7151,3.9944l-1.442,-4.8139c-0.79308,-2.6476 -4.1524,-12.9 -7.4651,-22.783s-6.0231,-18.542 -6.0231,-19.242c0,-1.5034 13.419,-10.66 14.866,-10.144c0.54596,0.19498 9.1245,7.9189 19.064,17.164s18.071,16.419 18.071,15.943s-3.8249,-10.966 -8.4998,-23.31s-8.4999,-22.722 -8.5,-23.063s2.8033,-2.463 6.2297,-4.7148c4.3334,-2.8477 6.4251,-3.7243 6.8708,-2.8793c1.3022,2.4682 25.105,70.84 24.758,71.118c-0.19748,0.15817 -3.1963,2.1908 -6.664,4.517l-6.3049,4.2294l-5.1951,-4.5054c-2.8573,-2.478 -12.158,-10.811 -20.669,-18.518s-15.591,-13.895 -15.735,-13.751s3.5571,11.695 8.2237,25.671s8.4847,25.741 8.4847,26.145c0,0.60188 -8.3053,6.6014 -12.595,9.0987c-0.60451,0.35188 -12.929,-10.597 -27.5,-24.429l-0.001,0.0003z"/>
   <path id="svg_41" fill="#d90133" d="m408.21,256.44c-3.6498,-1.4332 -5.8853,-2.8744 -5.7072,-3.6795c0.16107,-0.72794 2.5236,-7.2177 5.25,-14.422s4.9572,-13.506 4.9572,-14.004c0,-1.1254 -24.831,-10.62 -25.956,-9.9248c-0.44918,0.27761 -3.1989,6.8098 -6.1105,14.516s-5.7916,14.011 -6.4,14.011c-2.8423,0 -13.023,-4.7978 -12.914,-6.0858c0.06579,-0.77779 5.886,-16.405 12.934,-34.726c14.444,-37.55 12.178,-34.523 22.394,-29.919l4.9517,2.2315l-4.9494,12.899c-2.7221,7.0943 -4.9493,13.176 -4.9493,13.514c0,0.76005 25.871,10.57 26.37,9.9987c0.19772,-0.22632 2.5565,-6.149 5.2418,-13.161s5.35,-12.75 5.9216,-12.75c2.7848,0 12.955,4.8151 12.855,6.0858c-0.26223,3.3079 -25.751,67.908 -26.769,67.844c-0.61563,-0.03876 -3.8193,-1.1307 -7.1193,-2.4265l-0.0006,-0.0014z"/>
   <path id="svg_42" fill="#d90133" d="m163.7,247.3c-0.00904,-0.47665 -4.2665,-16.597 -9.4611,-35.822s-9.2842,-35.116 -9.0881,-35.312c0.3745,-0.37449 51.608,-14.202 52.693,-14.221c0.55783,-0.00998 4.048,12.266 3.5674,12.547c-0.10689,0.06263 -8.2943,2.2522 -18.194,4.8656s-18.409,5.1439 -18.909,5.6232c-0.69756,0.66843 1.7528,13.175 2.8786,14.693c0.09811,0.13225 7.6549,-1.7802 16.793,-4.25s17.222,-4.4905 17.964,-4.4905c0.8031,0 1.9963,2.414 2.947,5.9624l1.5976,5.9624l-5.1352,1.459c-2.8244,0.80244 -10.535,2.885 -17.135,4.628s-12.321,3.4721 -12.714,3.8426c-0.72516,0.68411 3.2028,16.468 4.3949,17.66c0.35772,0.35772 9.2947,-1.6553 19.86,-4.4734s19.409,-4.9238 19.654,-4.6794c0.61975,0.61974 3.4937,11.795 3.1145,12.111c-0.17008,0.14159 -11.784,3.3068 -25.809,7.0337s-26.288,6.9902 -27.25,7.2518s-1.7574,0.08548 -1.7664,-0.39117l-0.0022,-0.00023z"/>
   <path id="svg_43" fill="#d90133" d="m320.37,230.88c-2.6663,-0.44741 -5.094,-1.0597 -5.395,-1.3607s-0.03896,-4.4945 0.58227,-9.3189c3.5756,-27.768 6.2249,-50.541 5.9156,-50.85c-0.34178,-0.34178 -16.949,-2.3969 -19.505,-2.4137c-1.3315,-0.00873 -1.7152,-6.6703 -0.61971,-10.758c0.70412,-2.6274 2.2909,-2.77 13.37,-1.2012c4.125,0.58413 15.945,2.0944 26.266,3.3563s19.015,2.5428 19.319,2.8467c0.48684,0.48684 -1.1786,11.69 -1.8312,12.318c-0.13962,0.13441 -4.7538,-0.33897 -10.254,-1.052s-10.338,-1.0947 -10.75,-0.84817s-0.75,1.7974 -0.75,3.4465s-0.45013,6.01 -1.0003,9.691s-1.9093,14.343 -3.0204,23.693s-2.2563,18.462 -2.545,20.25c-0.57912,3.5854 -0.987,3.6771 -9.7821,2.2013l-0.00016,-0.00013z"/>
   <path id="svg_44" fill="#fff" d="m264.4,198.35l3.1858,-0.48553l-4.9933,-11.217c-2.7463,-6.1692 -5.3444,-11.571 -5.7735,-12.004s-2.2264,4.2918 -3.9939,10.5s-3.4544,12.102 -3.7485,13.097c-0.48896,1.6542 0.00874,1.7573 5.8014,1.2023c3.4849,-0.33394 7.7699,-0.82564 9.522,-1.0927l0,-0.00007z"/>
  </g>
 </g>
</svg>